<svg width="12" height="14" viewBox="0 0 12 14" fill="none" xmlns="http://www.w3.org/2000/svg">
<ellipse cx="6" cy="7.33914" rx="6" ry="6.49565" fill="white"/>
<mask id="path-2-inside-1_3_371" fill="white">
<path d="M9 5.68275L4.88571 10.0132L3 8.0284L3.48343 7.51957L4.88571 8.99192L8.51657 5.17392L9 5.68275Z"/>
</mask>
<path d="M9 5.68275L4.88571 10.0132L3 8.0284L3.48343 7.51957L4.88571 8.99192L8.51657 5.17392L9 5.68275Z" fill="#4ADE80"/>
<path d="M9 5.68275L49.5982 44.2546L86.2448 5.68275L49.5982 -32.8891L9 5.68275ZM4.88571 10.0132L-35.7125 48.585L4.88571 91.3161L45.4839 48.585L4.88571 10.0132ZM3 8.0284L-37.5982 -30.5434L-74.2448 8.0284L-37.5982 46.6002L3 8.0284ZM3.48343 7.51957L44.0345 -31.1018L3.43376 -73.7311L-37.1148 -31.0522L3.48343 7.51957ZM4.88571 8.99192L-35.6653 47.6133L4.91621 90.2224L45.4657 47.5829L4.88571 8.99192ZM8.51657 5.17392L49.1148 -33.3979L8.53575 -76.1088L-32.0634 -33.417L8.51657 5.17392ZM-31.5982 -32.8891L-35.7125 -28.5586L45.4839 48.585L49.5982 44.2546L-31.5982 -32.8891ZM45.4839 -28.5586L43.5982 -30.5434L-37.5982 46.6002L-35.7125 48.585L45.4839 -28.5586ZM43.5982 46.6002L44.0817 46.0914L-37.1148 -31.0522L-37.5982 -30.5434L43.5982 46.6002ZM-37.0676 46.141L-35.6653 47.6133L45.4368 -29.6295L44.0345 -31.1018L-37.0676 46.141ZM45.4657 47.5829L49.0966 43.7649L-32.0634 -33.417L-35.6943 -29.599L45.4657 47.5829ZM-32.0817 43.7457L-31.5982 44.2546L49.5982 -32.8891L49.1148 -33.3979L-32.0817 43.7457Z" fill="#4ADE80" mask="url(#path-2-inside-1_3_371)"/>
</svg>
