<svg width="12" height="13" viewBox="0 0 12 13" fill="none" xmlns="http://www.w3.org/2000/svg">
<ellipse cx="6" cy="6.49565" rx="6" ry="6.49565" fill="white"/>
<mask id="path-2-inside-1_5_787" fill="white">
<path d="M9 4.83927L4.88571 9.16971L3 7.18492L3.48343 6.6761L4.88571 8.14844L8.51657 4.33044L9 4.83927Z"/>
</mask>
<path d="M9 4.83927L4.88571 9.16971L3 7.18492L3.48343 6.6761L4.88571 8.14844L8.51657 4.33044L9 4.83927Z" fill="#4ADE80"/>
<path d="M9 4.83927L49.5982 43.4111L86.2448 4.83927L49.5982 -33.7325L9 4.83927ZM4.88571 9.16971L-35.7125 47.7415L4.88571 90.4726L45.4839 47.7415L4.88571 9.16971ZM3 7.18492L-37.5982 -31.3869L-74.2448 7.18492L-37.5982 45.7567L3 7.18492ZM3.48343 6.6761L44.0345 -31.9453L3.43376 -74.5745L-37.1148 -31.8957L3.48343 6.6761ZM4.88571 8.14844L-35.6653 46.7699L4.91621 89.379L45.4657 46.7394L4.88571 8.14844ZM8.51657 4.33044L49.1148 -34.2414L8.53575 -76.9523L-32.0634 -34.2605L8.51657 4.33044ZM-31.5982 -33.7325L-35.7125 -29.4021L45.4839 47.7415L49.5982 43.4111L-31.5982 -33.7325ZM45.4839 -29.4021L43.5982 -31.3869L-37.5982 45.7567L-35.7125 47.7415L45.4839 -29.4021ZM43.5982 45.7567L44.0817 45.2479L-37.1148 -31.8957L-37.5982 -31.3869L43.5982 45.7567ZM-37.0676 45.2975L-35.6653 46.7699L45.4368 -30.473L44.0345 -31.9453L-37.0676 45.2975ZM45.4657 46.7394L49.0966 42.9214L-32.0634 -34.2605L-35.6943 -30.4425L45.4657 46.7394ZM-32.0817 42.9022L-31.5982 43.4111L49.5982 -33.7325L49.1148 -34.2414L-32.0817 42.9022Z" fill="#4ADE80" mask="url(#path-2-inside-1_5_787)"/>
</svg>
